<svg xmlns="http://www.w3.org/2000/svg" version="1.1" viewBox="0 0 768 256">
  <g fill="#fff">
    <path d="M74.6631,75.0091c7.3691,0,11.1638,8.7435,15.5573,18.8679,1.5557,3.5846,3.9847,9.1816,5.7721,11.6282,1.7875-2.4453,4.2152-8.041,5.7712-11.6247,4.3945-10.1279,8.1888-18.8714,15.5586-18.8714,7.3489.0007,11.1413,8.7009,15.5319,18.7744l.0371.0856c1.3347,3.0763,3.3063,7.6144,4.9686,10.3932.5248-2.6738.8068-5.4348.8068-8.2624,0-23.5642-19.1025-42.6667-42.6667-42.6667s-42.6667,19.1025-42.6667,42.6667c0,2.8277.282,5.5887.8068,8.2626,1.6619-2.7784,3.633-7.3151,4.9653-10.3857,4.3936-10.1244,8.1882-18.8679,15.5576-18.8679Z"/>
    <path d="M123.1094,98.123l-.0339-.0775c-1.5514-3.5602-3.9733-9.1165-5.7532-11.5508-1.7878,2.446-4.2161,8.0433-5.7722,11.6283-4.3951,10.1263-8.1888,18.8678-15.5576,18.8678s-11.1637-8.7435-15.5573-18.8678c-1.5557-3.585-3.9847-9.182-5.7722-11.6283-1.7878,2.4463-4.2168,8.0433-5.7725,11.6283-3.3359,7.6877-6.3279,14.575-10.8008,17.4468,7.095,13.7159,21.4025,23.0967,37.9102,23.0967s30.8151-9.381,37.9102-23.0968c-4.4728-2.8719-7.465-9.7592-10.8008-17.4468Z"/>
    <path d="M209.5967,205.9043l-52.793-67.5088c-2.2498-2.8774-5.4117-4.6195-8.7607-5.1686,7.5175-10.4905,11.957-23.3364,11.957-37.2269,0-35.3463-28.6537-64-64-64S32,60.6537,32,96s28.6537,64,64,64c9.0811,0,17.7141-1.9028,25.5392-5.3131-.0848,3.2394.9457,6.3804,2.9676,8.9655l52.792,67.5088c2.7578,3.5254,6.8809,5.3701,11.043,5.3701,3.0166,0,6.0547-.9688,8.6094-2.9658l10.2412-8.0088c6.0811-4.7549,7.1592-13.5713,2.4043-19.6523ZM96,149.3333c-29.4552,0-53.3333-23.8782-53.3333-53.3333s23.8781-53.3334,53.3333-53.3334,53.3333,23.8782,53.3333,53.3334-23.8781,53.3333-53.3333,53.3333ZM199.7998,216.1035l-10.2412,8.0088c-.8672.6797-2.127.5264-2.8066-.3438l-52.792-67.5088c-.4443-.5684-.4482-1.168-.4102-1.4756.0371-.3066.1855-.8887.7529-1.332l10.2412-8.0078c.3643-.2852.7988-.4238,1.2295-.4238.5947,0,1.1836.2637,1.5771.7676l52.793,67.5088c.6797.8682.5254,2.1279-.3438,2.8066Z"/>
    <path d="M300.667,105.2627h-38.8799V37.7427c0-4.48-1.0146-7.52-3.04-9.1201-2.0273-1.5996-5.3867-2.3999-10.0801-2.3999-2.0273,0-4.1348.1602-6.3193.48-2.1875.3203-3.8154.5874-4.8799.8003v84.6396c0,3.9478,1.1719,7.0952,3.5195,9.4399,2.3447,2.3477,5.4922,3.52,9.4404,3.52h44.4795c2.665,0,4.7451-.8525,6.2402-2.5601,1.4922-1.7046,2.2402-4.2646,2.2402-7.6797,0-2.0249-.2676-3.8652-.7998-5.52-.5352-1.6523-1.1758-3.0127-1.9209-4.0801Z"/>
    <path d="M348.2666,61.0229c-3.6162-2.0161-7.8564-3.0239-12.7197-3.0239s-9.1367,1.0078-12.8154,3.0239c-3.6816,2.0161-6.5449,4.8481-8.5928,8.4961-2.0488,3.6479-3.0713,7.9678-3.0713,12.96,0,5.0566,1.0078,9.4243,3.0234,13.104,2.0166,3.6812,4.8486,6.4966,8.4961,8.4482,3.6484,1.9512,7.9355,2.9277,12.8643,2.9277s9.2158-.9932,12.8643-2.9761c3.6475-1.9829,6.4795-4.8149,8.4951-8.4961,2.0166-3.6792,3.0244-8.0156,3.0244-13.0078,0-4.9272-1.0244-9.231-3.0723-12.9121-2.0488-3.6792-4.8809-6.5278-8.4961-8.5439ZM342.6514,92.271c-1.7285,2.3042-4.1279,3.4561-7.2002,3.4561s-5.4717-1.1357-7.2002-3.4082c-1.7275-2.271-2.5918-5.5513-2.5918-9.8398,0-4.2241.8789-7.4878,2.6396-9.792,1.7598-2.3042,4.1436-3.4561,7.1523-3.4561,3.0723,0,5.4717,1.1685,7.2002,3.5039,1.7275,2.3374,2.5918,5.5845,2.5918,9.7441,0,4.2241-.8643,7.4883-2.5918,9.792Z"/>
    <path d="M412.2969,95.4868c2.0166-3.6792,3.0244-8.0156,3.0244-13.0078,0-4.9272-1.0244-9.231-3.0723-12.9121-2.0488-3.6792-4.8809-6.5278-8.4961-8.5439-3.6162-2.0161-7.8564-3.0239-12.7197-3.0239s-9.1367,1.0078-12.8154,3.0239c-3.6816,2.0161-6.5449,4.8481-8.5928,8.4961-2.0488,3.6479-3.0713,7.9678-3.0713,12.96,0,5.0566,1.0078,9.4243,3.0234,13.104,2.0166,3.6812,4.8486,6.4966,8.4961,8.4482,3.6484,1.9512,7.9355,2.9277,12.8643,2.9277s9.2158-.9932,12.8643-2.9761c3.6475-1.9829,6.4795-4.8149,8.4951-8.4961ZM398.1377,92.271c-1.7285,2.3042-4.1279,3.4561-7.2002,3.4561s-5.4717-1.1357-7.2002-3.4082c-1.7275-2.271-2.5918-5.5513-2.5918-9.8398,0-4.2241.8789-7.4878,2.6396-9.792,1.7598-2.3042,4.1436-3.4561,7.1523-3.4561,3.0723,0,5.4717,1.1685,7.2002,3.5039,1.7275,2.3374,2.5918,5.5845,2.5918,9.7441,0,4.2241-.8643,7.4883-2.5918,9.792Z"/>
    <path d="M426.3115,104.751c1.248.96,3.2158,1.4399,5.9043,1.4399,1.3438,0,2.5918-.0811,3.7441-.2397,1.1514-.1606,2.0469-.3359,2.6875-.5283v-18.6782l11.9043,13.9746c1.5986,1.9844,3.1201,3.4077,4.5596,4.272,1.4404.8638,3.0244,1.2959,4.752,1.2959,2.3672,0,4.1914-.7202,5.4727-2.1602,1.2793-1.4399,2.0469-3.4395,2.3037-6l-16.7952-16.2634,7.9632-6.8724c2.3672-2.0479,4.1279-3.7275,5.2803-5.04,1.1514-1.311,1.7275-2.7993,1.7275-4.4644,0-1.9199-.8799-3.5186-2.6396-4.7998-1.7607-1.2793-4.0801-1.9517-6.96-2.0161l-17.5684,17.7238v-27.5157c0-2.5591-.624-4.3198-1.8721-5.2798s-3.249-1.4399-6-1.4399c-1.3438,0-2.5918.0957-3.7441.2881-1.1514.1919-2.0156.3838-2.5918.5757v56.5439c0,2.4961.624,4.2241,1.8721,5.1841Z"/>
    <path d="M483.4775,53.9673c2.3672,0,4.2871-.7681,5.7607-2.3042,1.4707-1.5361,2.208-3.3599,2.208-5.4722,0-2.1748-.7373-3.999-2.208-5.4717-1.4736-1.4717-3.3936-2.208-5.7607-2.208-2.3037,0-4.209.7363-5.7119,2.208-1.5039,1.4727-2.2559,3.2969-2.2559,5.4717,0,2.1123.752,3.936,2.2559,5.4722,1.5029,1.5361,3.4082,2.3042,5.7119,2.3042Z"/>
    <path d="M488.7578,60.543c-1.2168-.9268-3.2012-1.3921-5.9521-1.3921-1.3438,0-2.6084.0962-3.792.2881-1.1846.1919-2.0635.3843-2.6396.5762v39.5518c0,2.4961.624,4.2241,1.8721,5.1841s3.2471,1.4399,6,1.4399c1.3438,0,2.5918-.0811,3.7441-.2397,1.1514-.1606,2.0156-.3359,2.5918-.5283v-39.5518c0-2.6235-.6094-4.3994-1.8242-5.3281Z"/>
    <path d="M531.8613,80.271v19.2959c0,2.4961.6387,4.2241,1.9199,5.1841,1.2793.96,3.2637,1.4399,5.9521,1.4399,1.3438,0,2.5918-.0811,3.7441-.2397,1.1514-.1606,2.0469-.3359,2.6875-.5283v-29.7598c0-5.6953-1.8887-10.0635-5.6641-13.104-3.7764-3.0391-9.1201-4.5601-16.0322-4.5601-3.8398,0-7.3604.4648-10.5596,1.3921-3.2012.9282-5.8242,2.0972-7.8721,3.5039-1.2812.8325-2.2559,1.7759-2.9277,2.832s-1.0078,2.3848-1.0078,3.9839v29.856c0,2.4961.624,4.2241,1.8721,5.1841s3.2158,1.4399,5.9033,1.4399c1.3447,0,2.5918-.0811,3.7441-.2397,1.1523-.1606,2.0479-.3359,2.6885-.5283v-34.0796c1.0869-.5762,2.3037-1.0713,3.6475-1.4883,1.3438-.4155,2.8154-.624,4.416-.624,2.2393,0,4.0469.561,5.4238,1.6802,1.376,1.1206,2.0645,2.8647,2.0645,5.2319v4.1279Z"/>
    <path d="M596.6123,116.3672c2.0791-2.8174,3.1201-6.4653,3.1201-10.9443v-36.2876c0-1.5991-.3525-2.9282-1.0557-3.9844-.7051-1.0557-1.6328-1.9678-2.7842-2.7358-1.665-1.0874-3.9844-2.0957-6.96-3.0239-2.9766-.9272-6.1924-1.3921-9.6484-1.3921-4.7998,0-9.0234.8804-12.6719,2.6401-3.6475,1.7607-6.4795,4.353-8.4961,7.7759-2.0156,3.4243-3.0234,7.665-3.0234,12.7202,0,5.4404.9746,9.8398,2.9277,13.1997,1.9512,3.3599,4.543,5.7603,7.7764,7.2002,3.2305,1.4399,6.7344,2.1597,10.5117,2.1597,2.751,0,5.0879-.2876,7.0078-.8638,1.0878-.3265,2.0726-.6984,2.9756-1.1068v3.3148c0,2.9429-1.0557,5.0713-3.168,6.3838-2.1113,1.311-4.96,1.9683-8.5439,1.9683-2.625,0-5.1211-.3691-7.4873-1.104-2.3691-.7363-4.416-1.6172-6.1445-2.6401-.7676.5117-1.4248,1.2959-1.9678,2.3521-.5449,1.0562-.8164,2.2559-.8164,3.6001,0,2.5591,1.0879,4.5435,3.2646,5.9521,1.3438.8955,3.3115,1.6318,5.9033,2.208,2.5928.5757,5.5518.8638,8.8809.8638,4.416,0,8.3994-.6719,11.9512-2.0161,3.5527-1.3438,6.3682-3.4243,8.4482-6.2397ZM586.0049,90.7659c-.5687.3743-1.1737.7333-1.8242,1.073-1.4092.7368-3.168,1.104-5.2803,1.104-2.7529,0-5.04-.8472-6.8643-2.5439-1.8232-1.6948-2.7354-4.7832-2.7354-9.2637,0-4.0952.9746-7.104,2.9277-9.0244,1.9512-1.9199,4.4639-2.8799,7.5361-2.8799,1.4717,0,2.7031.1606,3.6953.48.9922.3213,1.8398.6719,2.5449,1.0562v19.9988Z"/>
    <path d="M483.3027,169.2002h-26.8799c-2.5605,0-4.6152.7754-6.1602,2.3203-1.5479,1.5479-2.3203,3.9746-2.3203,7.2803,0,1.9199.2656,3.707.7998,5.3594.5332,1.6553,1.1201,3.0156,1.7607,4.0801h18.7197v18.7207c-1.1748.5342-2.8555,1.0674-5.04,1.5996-2.1875.5352-4.6152.7998-7.2803.7998-5.6553,0-10.6943-1.1445-15.1201-3.4395-4.4268-2.293-7.8945-5.7852-10.3994-10.4805-2.5078-4.6924-3.7607-10.5596-3.7607-17.5996,0-6.5049,1.2803-12.1328,3.8408-16.8799,2.5596-4.7451,6.1592-8.373,10.7998-10.8809,4.6396-2.5049,9.8926-3.7598,15.7598-3.7598,5.4404,0,10.1855.748,14.2402,2.2402,4.0527,1.4951,7.4121,3.0947,10.0801,4.7998,1.7051-.96,3.1719-2.3721,4.3994-4.2402,1.2256-1.8643,1.8408-3.9717,1.8408-6.3193,0-3.2002-1.3076-6.0254-3.9209-8.4805-2.6143-2.4521-6.3467-4.3721-11.1992-5.7593-4.8555-1.3853-10.5879-2.0801-17.2002-2.0801-9.9199,0-18.96,1.9473-27.1201,5.8394-8.1602,3.8955-14.6396,9.6553-19.4404,17.2803-4.7998,7.6279-7.1992,17.0947-7.1992,28.4004,0,11.8398,2.3721,21.5195,7.1191,29.04,4.7451,7.5195,11.2002,13.0674,19.3604,16.6396s17.3604,5.3604,27.6006,5.3604c5.4395,0,10.8799-.6152,16.3193-1.8408,5.4404-1.2246,9.6006-2.6396,12.4805-4.2393,2.5596-1.3857,4.3994-2.8525,5.5195-4.4004,1.1201-1.5449,1.6807-3.8125,1.6807-6.7998v-33.2803c0-2.9854-.8281-5.2803-2.4805-6.8799-1.6553-1.5996-3.9199-2.4004-6.7998-2.4004Z"/>
    <path d="M519.8613,145.1367c-1.248-.96-3.249-1.4395-6-1.4395-1.3447,0-2.5928.0957-3.7441.2881-1.1523.1914-2.0498.3838-2.6885.5752v56.5439c0,2.4961.6387,4.2246,1.9199,5.1846,1.2793.96,3.2646,1.4395,5.9521,1.4395,1.3438,0,2.5918-.0811,3.7441-.2393,1.1523-.1611,2.0479-.3359,2.6875-.5283v-56.5439c0-2.5596-.624-4.3203-1.8711-5.2803Z"/>
    <path d="M567.6201,163.7129c-3.9688-2.7842-9.2803-4.1758-15.9355-4.1758-2.3047,0-4.6895.1768-7.1523.5273-2.4648.3525-4.624.9121-6.4795,1.6807-2.9453,1.2158-4.416,3.168-4.416,5.8555,0,1.1523.2715,2.2559.8154,3.3125.543,1.0557,1.2002,1.8398,1.9678,2.3516,1.8555-.7676,3.9512-1.4395,6.2881-2.0156,2.3359-.5762,4.7197-.8643,7.1523-.8643,3.1348,0,5.5518.4805,7.248,1.4404,1.6953.96,2.5439,2.5283,2.5439,4.7041v1.1514l-12.7686,1.3438c-5.3125.5137-9.3115,1.9365-12,4.2725-2.6875,2.3369-4.0312,5.6807-4.0312,10.0322,0,5.0566,1.9346,8.8652,5.8076,11.4238,3.8721,2.5586,9.0723,3.8398,15.6006,3.8398,3.6475,0,6.8955-.3359,9.7432-1.0078s5.2324-1.584,7.1523-2.7363c1.2793-.7031,2.3359-1.5508,3.168-2.5439.8311-.9912,1.248-2.2871,1.248-3.8877v-21.792c0-5.8232-1.9844-10.1279-5.9521-12.9121ZM559.748,196.4971c-.6406.3838-1.6797.7197-3.1201,1.0078-1.4395.2881-2.8965.4316-4.3672.4316-2.6885,0-4.6416-.4629-5.8564-1.3916-1.2168-.9268-1.8242-2.1602-1.8242-3.6963s.6396-2.6875,1.9199-3.4561c1.2793-.7676,3.0078-1.2148,5.1846-1.3438l8.0635-.7676v9.2158Z"/>
    <path d="M605.8271,178.7373l-3.8398-.96c-1.8574-.3848-3.1533-.8799-3.8877-1.4883-.7373-.6074-1.1045-1.3281-1.1045-2.1602,0-1.2793.6387-2.2227,1.9199-2.832,1.2793-.6074,3.0723-.9121,5.376-.9121,1.4717,0,3.0557.1602,4.752.4805,1.6953.3203,3.2646.7363,4.7041,1.248,1.4404.5127,2.5107.9922,3.2158,1.4395.8311-.6387,1.5029-1.4395,2.0166-2.3994.5117-.96.7676-2.0791.7676-3.3604,0-1.8555-.7363-3.4082-2.208-4.6562-1.4727-1.248-3.4727-2.1748-6-2.7842-2.5283-.6074-5.3281-.9121-8.3994-.9121-6.1445,0-11.0254,1.3291-14.6406,3.9844-3.6162,2.6562-5.4238,6.2246-5.4238,10.7041,0,3.9688,1.2627,7.0889,3.792,9.3604,2.5273,2.2725,6.3516,3.9521,11.4717,5.04l4.0322.96c1.9199.3203,3.2959.8154,4.1279,1.4873.8311.6719,1.248,1.584,1.248,2.7363,0,2.6885-2.3369,4.0322-7.0078,4.0322-3.0723,0-5.8076-.4326-8.208-1.2959-2.4004-.8643-4.4971-1.8076-6.2881-2.832-.8965.5762-1.6318,1.3604-2.208,2.3516-.5762.9932-.8643,2.1602-.8643,3.5039,0,3.0088,1.6953,5.2803,5.0879,6.8164,3.3916,1.5361,7.7119,2.3037,12.9609,2.3037,6.7197,0,11.8389-1.3291,15.3594-3.9844,3.5195-2.6543,5.2803-6.3193,5.2803-10.9912,0-3.8398-1.248-6.96-3.7441-9.3604s-6.5928-4.2393-12.2881-5.5195Z"/>
    <path d="M664.29,184.2568c-2.4961-2.4004-6.5928-4.2393-12.2881-5.5195l-3.8398-.96c-1.8574-.3848-3.1533-.8799-3.8877-1.4883-.7373-.6074-1.1045-1.3281-1.1045-2.1602,0-1.2793.6387-2.2227,1.9199-2.832,1.2793-.6074,3.0723-.9121,5.376-.9121,1.4717,0,3.0557.1602,4.752.4805,1.6953.3203,3.2646.7363,4.7041,1.248,1.4404.5127,2.5107.9922,3.2158,1.4395.8311-.6387,1.5029-1.4395,2.0166-2.3994.5117-.96.7676-2.0791.7676-3.3604,0-1.8555-.7363-3.4082-2.208-4.6562-1.4727-1.248-3.4727-2.1748-6-2.7842-2.5283-.6074-5.3281-.9121-8.3994-.9121-6.1445,0-11.0254,1.3291-14.6406,3.9844-3.6162,2.6562-5.4238,6.2246-5.4238,10.7041,0,3.9688,1.2627,7.0889,3.792,9.3604,2.5273,2.2725,6.3516,3.9521,11.4717,5.04l4.0322.96c1.9199.3203,3.2959.8154,4.1279,1.4873.8311.6719,1.248,1.584,1.248,2.7363,0,2.6885-2.3369,4.0322-7.0078,4.0322-3.0723,0-5.8076-.4326-8.208-1.2959-2.4004-.8643-4.4971-1.8076-6.2881-2.832-.8965.5762-1.6318,1.3604-2.208,2.3516-.5762.9932-.8643,2.1602-.8643,3.5039,0,3.0088,1.6953,5.2803,5.0879,6.8164,3.3916,1.5361,7.7119,2.3037,12.9609,2.3037,6.7197,0,11.8389-1.3291,15.3594-3.9844,3.5195-2.6543,5.2803-6.3193,5.2803-10.9912,0-3.8398-1.248-6.96-3.7441-9.3604Z"/>
  </g>
</svg>
